<?xml version="1.0" encoding="utf-8"?>
<!-- Generator: Adobe Illustrator 19.2.0, SVG Export Plug-In . SVG Version: 6.00 Build 0)  -->
<svg version="1.1" id="items_1_" xmlns="http://www.w3.org/2000/svg" xmlns:xlink="http://www.w3.org/1999/xlink" x="0px" y="0px"
	 viewBox="0 0 336 235.2" style="enable-background:new 0 0 336 235.2;" xml:space="preserve">
<style type="text/css">
	.st0{fill:#FFD55C;}
	.st1{fill:#DBDBE5;}
	.st2{fill:#586773;}
	.st3{fill:#FFFFFF;}
	.st4{fill:#3E414A;}
	.st5{fill:#333333;}
	.st6{fill:#F69777;}
	.st7{fill:#BCB8BE;}
	.st8{fill:#B2E1EE;}
	.st9{fill:#F4F4F4;}
	.st10{fill:#2F4047;}
	.st11{fill:#ED8D24;}
</style>
<rect id="background" class="st0" width="336" height="235.2"/>
<g id="pen_1_">
	<path class="st1" d="M187.1,144.8c0-3-0.4-82.3-0.4-124.2H184l0-3.9c0-1-0.8-1.9-1.9-1.9l-6.2,0c-1,0-1.9,0.8-1.9,1.9v3.9h-3
		c0,41.9-0.1,121.2-0.1,124.2c0,3,5.3,17.2,5.3,17.2l1.4,0v4l1.3,2.5v0l0,0v0l1.3-2.5v-4l1.3,0C181.7,162.1,187.1,147.8,187.1,144.8
		z"/>
	<g>
		<path class="st2" d="M177.4,162.1c0,0,5.3-14.3,5.3-17.2c0-3-0.4-82.3-0.4-124.2h-15.6c0,41.9-0.1,121.2-0.1,124.2
			c0,3,5.3,17.2,5.3,17.2L177.4,162.1z"/>
		<path class="st3" d="M179.7,20.7l0-3.9c0-1-0.8-1.9-1.9-1.9l-6.2,0c-1,0-1.9,0.8-1.9,1.9v3.9H179.7z"/>
		<path class="st3" d="M169.8,23.1l0,45.8c0,1,0.8,1.9,1.9,1.9l6.2,0c1,0,1.9-0.8,1.9-1.9V23.1H169.8z"/>
		<polygon class="st4" points="176.2,162.1 174.9,162.1 174.9,162.1 173.5,162.1 173.5,166 174.9,168.6 174.9,168.6 174.9,168.6 
			174.9,168.6 174.9,168.6 176.2,166 		"/>
	</g>
</g>
<g id="watch">
	<path class="st1" d="M244.1,116.3c0-10.1-6.2-18.8-15-22.4V51.2h2.6v-6.6H229V30.5h2.6V13.8H208v16.7h2.5v14.1H208v6.6h2.5v42.7h0
		c-8.8,3.7-14.9,12.3-14.9,22.4c0,10.3,6.4,19.1,15.5,22.6h-0.6v70.8c0,5.1,4.2,9.3,9.3,9.3c5.1,0,9.3-4.2,9.3-9.3v-70.8h-0.5
		C237.6,135.4,244.1,126.6,244.1,116.3z M229.1,16.1v12.2H229v-5.1h-8.1v-2.4h-2.3v2.4h-8.1v-7H229.1z M219.8,92c0.4,0,0.8,0,1.2,0
		C220.6,92.1,220.2,92,219.8,92c-0.4,0-0.8,0-1.2,0C219,92.1,219.4,92,219.8,92z M217.6,140.4C217.6,140.4,217.5,140.4,217.6,140.4
		C217.5,140.4,217.6,140.4,217.6,140.4z M219.5,207c-1.3,0-2.4-1.1-2.4-2.4c0-1.3,1.1-2.4,2.4-2.4c1.3,0,2.4,1.1,2.4,2.4
		C221.9,206,220.9,207,219.5,207z M219.5,197.7c-1.3,0-2.4-1.1-2.4-2.4c0-1.3,1.1-2.4,2.4-2.4c1.3,0,2.4,1.1,2.4,2.4
		C221.9,196.6,220.9,197.7,219.5,197.7z M219.5,188.3c-1.3,0-2.4-1.1-2.4-2.4c0-1.3,1.1-2.4,2.4-2.4c1.3,0,2.4,1.1,2.4,2.4
		C221.9,187.2,220.9,188.3,219.5,188.3z M219.5,178.9c-1.3,0-2.4-1.1-2.4-2.4c0-1.3,1.1-2.4,2.4-2.4c1.3,0,2.4,1.1,2.4,2.4
		C221.9,177.9,220.9,178.9,219.5,178.9z M222.1,140.4C222.1,140.4,222.1,140.4,222.1,140.4C222.1,140.4,222.1,140.4,222.1,140.4z"/>
	<g>
		<g>
			<path class="st2" d="M228.5,30.5h-23.6V13.8h23.6V30.5z M207.4,28.2H226V16.1h-18.7V28.2z"/>
		</g>
		<path class="st5" d="M240.9,116.3c0,13.4-10.9,24.2-24.2,24.2c-13.4,0-24.2-10.9-24.2-24.2c0-13.4,10.9-24.2,24.2-24.2
			C230.1,92,240.9,102.9,240.9,116.3z"/>
		<path class="st6" d="M216.7,92c3.3,0,6.4,0.7,9.2,1.8V23.1h-18.5v70.8h0C210.2,92.7,213.4,92,216.7,92z"/>
		<path class="st3" d="M236.7,116.3c0,11-8.9,20-20,20c-11,0-20-8.9-20-20c0-11,8.9-20,20-20C227.7,96.3,236.7,105.3,236.7,116.3z"
			/>
		<g>
			<g>
				<circle class="st5" cx="216.7" cy="98.9" r="0.5"/>
				
					<ellipse transform="matrix(0.8665 -0.4992 0.4992 0.8665 -22.7463 117.3475)" class="st5" cx="208" cy="101.2" rx="0.5" ry="0.5"/>
				
					<ellipse transform="matrix(0.5026 -0.8645 0.8645 0.5026 7.2737 227.7899)" class="st5" cx="201.6" cy="107.6" rx="0.5" ry="0.5"/>
				<circle class="st5" cx="199.3" cy="116.3" r="0.5"/>
				
					<ellipse transform="matrix(0.8649 -0.502 0.502 0.8649 -35.5052 118.0991)" class="st5" cx="201.6" cy="125" rx="0.5" ry="0.5"/>
				
					<ellipse transform="matrix(0.4989 -0.8666 0.8666 0.4989 -9.6428 246.0737)" class="st5" cx="208" cy="131.4" rx="0.5" ry="0.5"/>
				<ellipse class="st5" cx="216.7" cy="133.7" rx="0.5" ry="0.5"/>
				
					<ellipse transform="matrix(0.8657 -0.5006 0.5006 0.8657 -35.4884 130.5043)" class="st5" cx="225.4" cy="131.4" rx="0.5" ry="0.5"/>
				
					<ellipse transform="matrix(0.5005 -0.8657 0.8657 0.5005 7.5707 263.1098)" class="st5" cx="231.8" cy="125" rx="0.5" ry="0.5"/>
				
					<ellipse transform="matrix(1.011940e-03 -1 1 1.011940e-03 117.6063 350.3007)" class="st5" cx="234.1" cy="116.3" rx="0.5" ry="0.5"/>
				
					<ellipse transform="matrix(0.8665 -0.4993 0.4993 0.8665 -22.751 130.0916)" class="st5" cx="231.8" cy="107.6" rx="0.5" ry="0.5"/>
				
					<ellipse transform="matrix(0.501 -0.8655 0.8655 0.501 24.914 245.5899)" class="st5" cx="225.4" cy="101.2" rx="0.5" ry="0.5"/>
			</g>
		</g>
		<g>
			<rect x="217.7" y="115.9" class="st5" width="12" height="0.8"/>
			<path class="st6" d="M216.7,114.8c-0.3,0-0.6,0.1-0.8,0.3l-8.2-8.2l-0.3,0.3l8.2,8.2c-0.2,0.2-0.3,0.5-0.3,0.8
				c0,0.8,0.7,1.5,1.5,1.5c0.8,0,1.5-0.7,1.5-1.5C218.2,115.5,217.5,114.8,216.7,114.8z"/>
		</g>
		<g>
			<rect x="215.5" y="20.7" class="st2" width="2.3" height="9.9"/>
		</g>
		<rect x="204.9" y="44.7" class="st7" width="23.6" height="6.6"/>
		<path class="st6" d="M225.4,138.9c-2.7,1-5.6,1.6-8.7,1.6c-3.1,0-6-0.6-8.7-1.6h-0.7v70.8c0,5.1,4.2,9.3,9.3,9.3
			c5.1,0,9.3-4.2,9.3-9.3v-70.8H225.4z M216.4,207c-1.3,0-2.4-1.1-2.4-2.4c0-1.3,1.1-2.4,2.4-2.4c1.3,0,2.4,1.1,2.4,2.4
			C218.8,206,217.7,207,216.4,207z M216.4,197.7c-1.3,0-2.4-1.1-2.4-2.4c0-1.3,1.1-2.4,2.4-2.4c1.3,0,2.4,1.1,2.4,2.4
			C218.8,196.6,217.7,197.7,216.4,197.7z M216.4,188.3c-1.3,0-2.4-1.1-2.4-2.4c0-1.3,1.1-2.4,2.4-2.4c1.3,0,2.4,1.1,2.4,2.4
			C218.8,187.2,217.7,188.3,216.4,188.3z M216.4,178.9c-1.3,0-2.4-1.1-2.4-2.4c0-1.3,1.1-2.4,2.4-2.4c1.3,0,2.4,1.1,2.4,2.4
			C218.8,177.9,217.7,178.9,216.4,178.9z"/>
	</g>
</g>
<g id="dice">
	<path class="st1" d="M197,186.6c0-1.6-1.3-3-3-3l-28.7,0c-1.6,0-3,1.3-3,3l0,28.7c0,1.6,1.3,3,3,3l28.7,0c1.6,0,3-1.3,3-3
		L197,186.6z"/>
	<g>
		<path class="st3" d="M191.9,186.6c0-1.6-1.3-3-3-3l-28.7,0c-1.6,0-3,1.3-3,3l0,28.7c0,1.6,1.3,3,3,3l28.7,0c1.6,0,3-1.3,3-3
			L191.9,186.6z"/>
		<g>
			<circle class="st7" cx="165.2" cy="191" r="3"/>
			<circle class="st7" cx="165.2" cy="200.9" r="3"/>
			<circle class="st7" cx="165.2" cy="210.9" r="3"/>
			<circle class="st7" cx="183.9" cy="191" r="3"/>
			<circle class="st7" cx="183.9" cy="200.9" r="3"/>
			<circle class="st7" cx="184" cy="210.9" r="3"/>
		</g>
	</g>
</g>
<g id="music_player">
	<path class="st1" d="M314.8,15.4c-0.7-0.7-1.6-1-2.5-1h-57c-0.9,0-1.8,0.3-2.5,1c-0.7,0.7-1,1.6-1,2.5v90.2c-0.7,2-1.1,4.1-1.1,6.4
		c0,10.4,8.4,18.9,18.7,19.2l0.5,0c1.1,0,2.2,0.1,3.2,0.3v37.4c-0.9,0.5-1.7,0.8-2.3,0.9c-3.7,0.3-4.8-3-6.9-4c0,0,0,0,0,0
		c-0.2-0.1-0.3-0.1-0.5-0.2c0,0,0,0-0.1,0c-0.3-0.1-0.7-0.1-1.1,0c0,0-0.1,0-0.1,0c-0.2,0-0.4,0.1-0.6,0.2c0,0,0,0-0.1,0
		c-0.2,0.1-0.4,0.2-0.6,0.3c0,0-0.1,0-0.1,0c-0.2,0.1-0.5,0.3-0.7,0.4c-0.1,0-0.1,0.1-0.2,0.1c-0.3,0.2-0.5,0.4-0.8,0.6
		c-0.4,0.3-0.8,0.7-1.2,1c-0.1,0.1-0.2,0.2-0.3,0.3c-0.2,0.2-0.5,0.5-0.6,0.7c-0.1,0.1-0.2,0.3-0.3,0.4c-0.2,0.2-0.3,0.4-0.5,0.6
		c-0.1,0.1-0.2,0.3-0.2,0.4c-0.1,0.2-0.2,0.4-0.3,0.6c-0.1,0.1-0.1,0.3-0.2,0.4c-0.1,0.2-0.2,0.4-0.2,0.6c0,0.1-0.1,0.2-0.1,0.4
		c0,0.2-0.1,0.4-0.1,0.6c0,0.1,0,0.2,0,0.3c0,0.2,0,0.4,0,0.6c0,0.1,0,0.2,0,0.3c0,0.2,0.1,0.4,0.2,0.6c0,0.1,0,0.1,0,0.2
		c0,0,0,0,0,0c0.8,1.9,3.1,3.2,7.1,3c3.9-0.2,7.5-1.5,10.8-3.4v7.9c-0.6,0-1.3,0.3-1.6,0.9c0.7,3.6,0.2,14.4-1.7,16.7
		c-2.6,3-6,1-8.2,2.3c0,0,0,0,0,0c-0.3,0.2-0.6,0.4-0.8,0.7c0,0,0,0.1-0.1,0.1c-0.1,0.2-0.2,0.3-0.3,0.5c0,0,0,0.1,0,0.1
		c-0.1,0.2-0.2,0.4-0.2,0.6c0,0,0,0.1,0,0.1c-0.1,0.2-0.2,0.5-0.2,0.8c0,0.1,0,0.1,0,0.2c-0.1,0.3-0.1,0.6-0.2,1
		c-0.1,0.5-0.1,1-0.1,1.5c0,0,0,0.1,0,0.1c0,0.4,0,0.9,0,1.3c0,0.1,0,0.1,0,0.2c0,0.4,0.1,0.8,0.2,1.1c0,0.1,0,0.1,0,0.2
		c0.1,0.3,0.2,0.7,0.3,1c0,0,0,0.1,0,0.1c0.1,0.3,0.3,0.6,0.4,0.9c0,0,0,0.1,0,0.1c0.2,0.3,0.4,0.6,0.6,0.8c0,0,0,0,0,0
		c0.4,0.5,0.9,0.8,1.5,1.1c0,0,0,0,0,0c0,0,0,0,0,0c1.9,0.8,4.5,0,7.1-2.9c5-5.6,6.4-13.1,6.1-20.4c0-0.8-0.7-7.5-0.8-8.2
		c-0.1-0.4-0.5-0.7-1-0.8v-8.6c2.6-1.7,4.9-3.8,7-6.1c0.5-0.6,4.8-5.8,5.2-6.4c0.3-0.5,0-1.5-0.7-2.1l0.4,0.3
		c2-3.1,3.1-6.7,3.1-10.4c0-9.1-6.4-16.8-15-18.7v0h-0.1c-1.2-0.2-2.4-0.4-3.6-0.4l-0.5,0c-10.1,0-18.3-8.2-18.3-18.3
		c0-0.9,0.1-1.9,0.2-2.8c0.1,0.7,0.4,1.5,1,2c0.7,0.7,1.6,1,2.5,1h57c0.9,0,1.8-0.4,2.5-1c0.7-0.7,1-1.6,1-2.5V17.9
		C315.8,17,315.5,16.1,314.8,15.4z M288,152c0,3.5-1,6.9-2.9,9.9c-0.4-0.2-0.9-0.4-1.3-0.2c-1.5,2.2-6.3,6.8-9.9,9.2l0-36.6
		C282,136.1,288,143.3,288,152z"/>
	<g>
		<g id="earphones_2_">
			<g>
				<path class="st3" d="M267.2,185.9c0.7,3.6,0.2,14.4-1.7,16.7c-3.7,4.4-9.2-1.8-10.2,6.5c-1,8.1,4.4,11.8,10.1,5.4
					c5-5.6,6.4-13.1,6.1-20.4c0-0.8-0.7-7.5-0.8-8.2C270.6,185.1,267.9,184.5,267.2,185.9z"/>
				<path class="st7" d="M258.2,204.6c-1.4,0.3-2.5,1.3-2.9,4.6c-0.5,4.4,0.8,7.5,3,8.4C257.3,214.5,256.1,209.3,258.2,204.6z"/>
			</g>
			<g>
				<path class="st3" d="M279.6,161.6c-2.1,3-10,10.4-13.1,10.6c-5.7,0.4-5.2-7.7-11.8-2.6c-6.5,5.1-5.2,11.4,3.3,11
					c7.5-0.4,13.8-4.7,18.8-10.1c0.5-0.6,4.8-5.8,5.2-6.4C282.6,163.4,281.1,161.1,279.6,161.6z"/>
				<path class="st7" d="M260,168.5c-1.2-0.8-2.7-0.9-5.4,1.2c-3.5,2.7-4.7,5.8-3.8,8C252.3,174.8,255.2,170.3,260,168.5z"/>
			</g>
			<path class="st3" d="M295.5,86.8c0,8.4-7.9,8.5-8.2,8.5h-21.8c-10.6,0-19.2,8.6-19.2,19.2c0,10.4,8.4,18.9,18.7,19.2l0.5,0
				c1.1,0,2.2,0.1,3.2,0.3v57.1h0.9l0-56.9c8.1,1.9,14.1,9.1,14.1,17.8c0,3.5-1,6.9-2.9,9.9l0.8,0.5c2-3.1,3.1-6.7,3.1-10.4
				c0-9.1-6.4-16.8-15-18.7v0h-0.1c-1.2-0.2-2.4-0.4-3.6-0.4l-0.5,0c-10.1,0-18.3-8.2-18.3-18.3c0-10.1,8.2-18.3,18.3-18.3h21.8
				c0.1,0,9.1-0.1,9.1-9.4H295.5z"/>
		</g>
		<g>
			<g>
				<path class="st5" d="M251,14.4c-0.9,0-1.8,0.3-2.5,1c-0.7,0.7-1,1.6-1,2.5v93.3c0,0.9,0.4,1.8,1,2.5c0.7,0.7,1.6,1,2.5,1h57
					c0.9,0,1.8-0.4,2.5-1c0.7-0.7,1-1.6,1-2.5V17.9c0-0.9-0.3-1.8-1-2.5c-0.7-0.7-1.6-1-2.5-1H251z"/>
				<rect x="253.7" y="21.3" class="st3" width="51.8" height="42.1"/>
				<g>
					<circle class="st3" cx="279.5" cy="88.8" r="19.6"/>
					<ellipse class="st7" cx="279.5" cy="88.8" rx="11.2" ry="11.2"/>
					<polygon class="st3" points="276.5,84.3 284.3,88.8 276.5,93.3 					"/>
				</g>
			</g>
		</g>
		<g>
			<path class="st8" d="M297.9,56.3c0,0.3-0.1,0.7-0.4,0.9c-0.3,0.3-0.6,0.4-0.9,0.4h-34.4c-0.3,0-0.7-0.1-0.9-0.4
				c-0.3-0.3-0.4-0.6-0.4-0.9V34.7h37V56.3z"/>
			<path class="st7" d="M297.9,34.7h-37v-5.4c0-0.3,0.1-0.7,0.4-0.9c0.3-0.3,0.6-0.4,0.9-0.4h34.4c0.3,0,0.7,0.1,0.9,0.4
				c0.3,0.3,0.4,0.6,0.4,0.9V34.7z"/>
		</g>
	</g>
</g>
<g id="pendrive">
	<g>
		<path class="st1" d="M306.4,166.7h-6.2h-6.3v9.9h-3v38.8c0,2.2,1.8,4,4,4h5.2h5.2c2.2,0,4-1.8,4-4v-38.8h-3V166.7z"/>
		<path class="st1" d="M305.4,123.5h-5.3H295c-2.2,0-4,1.8-4,4v10h9.2h9.3v-10.4C309.2,125.1,307.5,123.5,305.4,123.5z"/>
	</g>
	<g>
		<polygon class="st9" points="296.5,166.7 290.2,166.7 290.2,176.6 296.5,176.6 302.7,176.6 302.7,166.7 		"/>
		<rect x="292.9" y="170.9" class="st10" width="2.9" height="2.4"/>
		<rect x="297.1" y="170.9" class="st10" width="2.9" height="2.4"/>
		<path class="st2" d="M296.5,176.6h-9.3v38.8c0,2.2,1.8,4,4,4h5.2h5.2c2.2,0,4-1.8,4-4v-38.8H296.5z"/>
		<path class="st3" d="M301.8,123.5h-5.3h-5.2c-2.2,0-4,1.8-4,4v10h9.2h9.3v-10.4C305.5,125.1,303.8,123.5,301.8,123.5z"/>
	</g>
</g>
<g id="notebook_1_">
	<g id="notebook">
		<path class="st1" d="M151.8,201.7l-0.1-172.4c0-7.4-4.5-13.4-10.4-14.2V15l-1,0c-0.1,0-0.2,0-0.4,0l-2.8,0v-0.2
			c0-0.9-0.7-1.7-1.5-1.7l-6.4,0c-0.5,0-1,0.5-1,1.1l0,0.7L36.7,15v0h-2v0l-8.5,0c-1.9,0-3.5,1.9-3.5,4.2L22.8,211
			c0,3.2,2.1,5.8,4.8,5.8l7.1,0v0.7h2v-0.7l91.7-0.1l0,1.6c0,0.7,0.5,1.2,1.1,1.2h0.3v0h1.2v0h1.2v0h1.2v0h1.2v0h1.2v0h0.6
			c0.5,0,0.9-0.4,0.9-1l0-1.8h0.2v0h3.9v-0.2C147.3,215.5,151.8,209.2,151.8,201.7z"/>
		<g>
			<line class="st11" x1="134.1" y1="216.8" x2="29.8" y2="216.9"/>
			<g>
				<path class="st8" d="M134.1,216.8l-111.9,0.1c-2.6,0-4.8-2.6-4.8-5.8L17.4,19.3c0-2.3,1.6-4.2,3.5-4.2L134.7,15
					c6.5,0,11.7,6.4,11.7,14.3l0.1,172.4C146.5,210,141,216.8,134.1,216.8"/>
				<path class="st5" d="M29.8,216.9l-7.6,0c-2.6,0-4.8-2.6-4.8-5.8L17.4,19.3c0-2.3,1.6-4.2,3.5-4.2l8.7,0L29.8,216.9z"/>
				<path class="st3" d="M131.1,219.6l-6.9,0c-0.6,0-1.1-0.5-1.1-1.2L123,14.2c0-0.6,0.4-1.1,1-1.1l6.4,0c0.8,0,1.5,0.8,1.5,1.7
					l0.1,203.8C132,219.2,131.6,219.6,131.1,219.6"/>
				<polygon class="st1" points="136.1,216.8 132.2,216.8 132,15 136.1,15 				"/>
				<g>
					<rect x="124.4" y="13.1" class="st1" width="1.2" height="206.5"/>
				</g>
				<g>
					<rect x="126.9" y="13.1" class="st1" width="1.2" height="206.5"/>
				</g>
				<g>
					<rect x="129.3" y="13.1" class="st1" width="1.2" height="206.5"/>
				</g>
			</g>
			<rect x="50.5" y="50.9" class="st7" width="62.6" height="45.3"/>
			<rect x="50.5" y="198.7" class="st2" width="62.6" height="6.1"/>
		</g>
	</g>
	<rect x="57.3" y="60" class="st3" width="49.7" height="3.4"/>
	<rect x="57.3" y="67.5" class="st3" width="49.7" height="3.4"/>
	<rect x="57.3" y="75" class="st3" width="49.7" height="3.4"/>
	<rect x="57.3" y="82.5" class="st3" width="29.9" height="3.4"/>
</g>
</svg>
