<svg id="Layer" xmlns="http://www.w3.org/2000/svg" xmlns:xlink="http://www.w3.org/1999/xlink" viewBox="0 0 310.38 193.14"><defs><style>.cls-1,.cls-32{opacity:0.1;}.cls-2,.cls-31,.cls-32{fill:#6656a0;}.cls-22,.cls-3{fill:#ea4e6e;}.cls-4{fill:#999ea3;}.cls-5{fill:url(#Névtelen_színátmenet_3);}.cls-6{fill:url(#Névtelen_színátmenet_3-2);}.cls-10,.cls-13,.cls-14,.cls-22,.cls-7,.cls-9{fill-rule:evenodd;}.cls-7{fill:url(#Névtelen_színátmenet_35);}.cls-8{fill:#844636;}.cls-9{fill:url(#Névtelen_színátmenet_35-2);}.cls-10{fill:#3b1919;}.cls-11{fill:#fff;}.cls-12{fill:#f7b29b;}.cls-13,.cls-26{fill:#4979bc;}.cls-14,.cls-33{fill:#f6cebc;}.cls-15{fill:#fcdcd3;}.cls-16{opacity:0.5;}.cls-17{fill:#343434;}.cls-18{fill:#cbcdd8;}.cls-19{fill:#c9cccc;}.cls-20{fill:#b1cfee;}.cls-21{fill:#8ac691;}.cls-23{fill:none;}.cls-24{fill:#023042;}.cls-25{fill:#e0e2e0;}.cls-27{fill:#f7bfd1;}.cls-28{fill:#676767;}.cls-29{fill:#2362ac;}.cls-30{opacity:0.2;}.cls-31{opacity:0.4;}.cls-34{fill:#e6e5e5;}.cls-35{fill:#f4f4f4;}</style><linearGradient id="Névtelen_színátmenet_3" x1="130.48" y1="107.1" x2="142.65" y2="107.1" gradientTransform="matrix(0.87, -0.06, 0.07, 1, 18.26, -24.47)" gradientUnits="userSpaceOnUse"><stop offset="0" stop-color="#fbd3bd"/><stop offset="0.01" stop-color="#fad2bc"/><stop offset="0.21" stop-color="#efc2ad"/><stop offset="0.43" stop-color="#e9b8a5"/><stop offset="0.72" stop-color="#e7b5a2"/></linearGradient><linearGradient id="Névtelen_színátmenet_3-2" x1="173.82" y1="109.8" x2="185.98" y2="109.8" gradientTransform="matrix(-0.87, -0.06, -0.07, 1, 355.11, -24.47)" xlink:href="#Névtelen_színátmenet_3"/><radialGradient id="Névtelen_színátmenet_35" cx="166.75" cy="77.89" r="32.24" gradientTransform="translate(2.86 -33.81) rotate(1.49) scale(1 1.38)" gradientUnits="userSpaceOnUse"><stop offset="0" stop-color="#fce1d3"/><stop offset="0.52" stop-color="#fbdfd1"/><stop offset="0.71" stop-color="#f8d9ca"/><stop offset="0.84" stop-color="#f3cfbf"/><stop offset="0.95" stop-color="#ecc0ae"/><stop offset="1" stop-color="#e7b5a2"/></radialGradient><radialGradient id="Névtelen_színátmenet_35-2" cx="166.75" cy="82.45" r="29.45" gradientTransform="translate(3.02 -35.53) rotate(1.49) scale(1 1.38)" xlink:href="#Névtelen_színátmenet_35"/></defs><title>eezy_15</title><g id="_Csoport_" data-name="&lt;Csoport&gt;" class="cls-1"><g id="_Csoport_2" data-name="&lt;Csoport&gt;"><path id="_Görbe_" data-name="&lt;Görbe&gt;" class="cls-2" d="M168,22.34a154.2,154.2,0,0,0-154.2,154.2h308.4A154.2,154.2,0,0,0,168,22.34Z" transform="translate(-13.37 -22.34)"/></g></g><path class="cls-3" d="M156.67,153.46c-4.26-13.09-9.69-21.77-17.51-24.21,0-.12-27-7.89-41.94-40.84h-18c0,9.8,10.24,29.94,21.41,42.92,15.69,19,52.39,34.24,67.19,34.24C164.91,161.89,158.06,157.73,156.67,153.46Z" transform="translate(-13.37 -22.34)"/><g id="_Csoport_3" data-name="&lt;Csoport&gt;"><g id="_Csoport_4" data-name="&lt;Csoport&gt;"><path id="_Görbe_2" data-name="&lt;Görbe&gt;" class="cls-4" d="M322.19,177.18H14.93a.82.82,0,0,1-.81-.82.81.81,0,0,1,.81-.81H322.19a.81.81,0,0,1,.81.81A.82.82,0,0,1,322.19,177.18Z" transform="translate(-13.37 -22.34)"/></g></g><path class="cls-5" d="M149.5,73.51c.24,3.36-1.92,6.24-4.83,6.45s-5.47-2.34-5.71-5.69,1.93-6.24,4.84-6.45S149.26,70.16,149.5,73.51Z" transform="translate(-13.37 -22.34)"/><path class="cls-6" d="M186.14,73.51c-.24,3.36,1.92,6.24,4.83,6.45s5.47-2.34,5.71-5.69-1.93-6.24-4.84-6.45S186.38,70.16,186.14,73.51Z" transform="translate(-13.37 -22.34)"/><path class="cls-7" d="M191.62,64.41V52.9S186.82,44,166.83,44c-17.44,0-21.86,3.22-22.7,1.75H144V65.23l-.06,0V76.76c0,14.26,10.78,25.91,23.94,25.91S191.77,91,191.77,76.76V64.28Z" transform="translate(-13.37 -22.34)"/><path class="cls-8" d="M198.63,73.7l-1.42-22.4c-.12-.74-.29-1.45-.46-2.17h0a30.23,30.23,0,0,0-25-22.76l-1.14-.16-.9-.07c-.76-.07-1.52-.11-2.29-.11a30.22,30.22,0,0,0-29.86,25.56l-.4,22.11c-.9,13.88-2.91,32-7.4,47.3l24.72.36h26.85L206,121C201.54,105.71,199.53,87.58,198.63,73.7Z" transform="translate(-13.37 -22.34)"/><path class="cls-9" d="M173.15,58.54c0,.11.21.39.73.91,3,3-1.32,6.25-.78,4.8.37-3.07-3.69-5.75-7.74-9.48a30.17,30.17,0,0,1-21.13,8.59H144l-.06,13.4c0,14.26,10.78,25.91,23.94,25.91S191.77,91,191.77,76.76v-12C187,65.44,179.23,65.27,173.15,58.54Z" transform="translate(-13.37 -22.34)"/><path class="cls-10" d="M185.55,73.46a.43.43,0,0,1-.39.47.41.41,0,0,1-.46-.38,3.08,3.08,0,0,0-1.52-2.47,3.61,3.61,0,0,0-1.65-.49,3.94,3.94,0,0,0-1.7.29A3.09,3.09,0,0,0,178,73.07a.44.44,0,0,1-.52.32.42.42,0,0,1-.32-.51,3.92,3.92,0,0,1,2.34-2.78,4.54,4.54,0,0,1,2.09-.37,4.49,4.49,0,0,1,2,.61A3.9,3.9,0,0,1,185.55,73.46Z" transform="translate(-13.37 -22.34)"/><path class="cls-10" d="M150.38,73.46a.43.43,0,0,0,.86.09,3.05,3.05,0,0,1,1.51-2.47,3.64,3.64,0,0,1,1.65-.49,3.94,3.94,0,0,1,1.7.29,3.12,3.12,0,0,1,1.84,2.19.43.43,0,0,0,.51.32.42.42,0,0,0,.32-.51,3.93,3.93,0,0,0-2.33-2.78,4.6,4.6,0,0,0-2.1-.37,4.53,4.53,0,0,0-2,.61A3.9,3.9,0,0,0,150.38,73.46Z" transform="translate(-13.37 -22.34)"/><path class="cls-11" d="M175.86,88.39a56.7,56.7,0,0,1-16.59,0c-.92-.14-1.44-.25-1.44-.25a5.09,5.09,0,0,0,.39,1,6.16,6.16,0,0,0,.53.8l.2.23a6,6,0,0,0,.5.51l.23.2a7,7,0,0,0,.81.59,14,14,0,0,0,6.9,1.8,1,1,0,0,0,.17,0,1.08,1.08,0,0,0,.18,0,14.07,14.07,0,0,0,6.9-1.8,8,8,0,0,0,.81-.59l.22-.2a6.14,6.14,0,0,0,.51-.51l.19-.23a5.28,5.28,0,0,0,.53-.8,5.12,5.12,0,0,0,.4-1S176.78,88.25,175.86,88.39Z" transform="translate(-13.37 -22.34)"/><path class="cls-12" d="M170.18,82.39a1.78,1.78,0,0,1-.64,1.59,2.86,2.86,0,0,1-3.82,0,1.78,1.78,0,0,1-.64-1.59c.19,1.11,1.35,1.58,2.55,1.57S170,83.5,170.18,82.39Z" transform="translate(-13.37 -22.34)"/><path class="cls-12" d="M165.08,96c-.1-.18.16-.37.64-.51a6.79,6.79,0,0,1,1.91-.24,6.69,6.69,0,0,1,1.91.24c.48.14.74.33.64.51-.19-.36-1.34-.51-2.55-.51S165.27,95.68,165.08,96Z" transform="translate(-13.37 -22.34)"/><path class="cls-13" d="M191.24,66.9a17.87,17.87,0,0,1-4.05-.45c-3-.56-7.75-.18-9.63-.15a10.88,10.88,0,0,0-7,2.74h-5.4a10.88,10.88,0,0,0-7-2.74c-1.88,0-6.59-.41-9.63.15a17.87,17.87,0,0,1-4.05.45.54.54,0,0,0-.54.53V68.5a.54.54,0,0,0,.54.54,1.19,1.19,0,0,1,.9,1.07l.27,4.64c.33,3.3,4,4.47,4,4.47,5.7,2,11.82.22,11.82.22,3.79-.86,4-5.44,4-5.76.15-2.07,1.39-2,1.39-2h2s1.24-.12,1.39,2c0,.32.19,4.9,4,5.76,0,0,6.12,1.8,11.82-.22,0,0,3.7-1.17,4-4.47l.27-4.64a1.19,1.19,0,0,1,.9-1.07.53.53,0,0,0,.53-.54V67.43A.53.53,0,0,0,191.24,66.9ZM155.18,79.21c-4.73-.11-8.45-1.68-8.62-5.73-.32-7.59,3.24-6.14,8.56-6.34,6.52-.25,9,3,9,6.34C164.16,76.59,163.2,79.41,155.18,79.21Zm33.94-5.73c-.17,4-3.89,5.62-8.62,5.73-8,.2-9-2.62-9-5.73,0-3.38,2.5-6.59,9-6.34C185.88,67.34,189.44,65.89,189.12,73.48Z" transform="translate(-13.37 -22.34)"/><path class="cls-10" d="M173.35,64.57A26.45,26.45,0,0,1,188.44,63C186.91,59.71,175.5,59.46,173.35,64.57Z" transform="translate(-13.37 -22.34)"/><path class="cls-10" d="M163,64.73a26.45,26.45,0,0,0-15.09-1.57C149.39,59.87,160.8,59.61,163,64.73Z" transform="translate(-13.37 -22.34)"/><path class="cls-14" d="M178.06,108.72a26.78,26.78,0,0,1-1.21-8,22.07,22.07,0,0,1-17.64.16,26.46,26.46,0,0,1-1.2,7.81,8.51,8.51,0,0,1-2.18,2.92v1.16L168,145.08l12.22-32.28v-1.14A8.43,8.43,0,0,1,178.06,108.72Z" transform="translate(-13.37 -22.34)"/><rect class="cls-15" y="161.5" width="310.38" height="7.75"/><g id="table_pattern" data-name="table pattern" class="cls-16"><rect class="cls-12" y="164.28" width="10.76" height="0.82"/><rect class="cls-12" x="15.38" y="162.93" width="11.28" height="0.82"/><rect class="cls-12" x="35.88" y="162.93" width="9.74" height="0.82"/><rect class="cls-12" x="52.53" y="162.93" width="10.51" height="0.82"/><rect class="cls-12" x="68.16" y="162.93" width="9.23" height="0.82"/><rect class="cls-12" x="39.46" y="167" width="13.07" height="0.81"/><rect class="cls-12" x="21.01" y="165.34" width="10.22" height="0.82"/><rect class="cls-12" x="7.97" y="166.56" width="7.4" height="0.82"/><rect class="cls-12" x="32.09" y="166.56" width="5.09" height="0.82"/><rect class="cls-12" x="59.96" y="166.56" width="8.74" height="0.82"/><rect class="cls-12" x="31.23" y="162.93" width="2.79" height="0.82"/><rect class="cls-12" x="54.39" y="167" width="2.4" height="0.81"/><rect class="cls-12" x="72.07" y="165.34" width="10.47" height="0.82"/><rect class="cls-12" x="85.33" y="162.93" width="2.02" height="0.82"/><rect class="cls-12" x="88.79" y="162.93" width="8.26" height="0.82"/><rect class="cls-12" x="85.33" y="167" width="5.09" height="0.81"/><rect class="cls-12" x="92.92" y="167" width="10.28" height="0.81"/><rect class="cls-12" x="105.8" y="167" width="1.83" height="0.81"/><rect class="cls-12" x="110.22" y="167" width="8.94" height="0.81"/><rect class="cls-12" x="102.72" y="164.32" width="10.67" height="0.81"/><rect class="cls-12" x="116.27" y="162.93" width="9.32" height="0.82"/><rect class="cls-12" x="127.8" y="162.93" width="1.92" height="0.82"/><rect class="cls-12" x="120.93" y="165.34" width="11.68" height="0.82"/><rect class="cls-12" x="133.57" y="166.56" width="5.29" height="0.82"/><rect class="cls-12" x="135.78" y="162.93" width="10.47" height="0.82"/><rect class="cls-12" x="141.83" y="166.56" width="11.91" height="0.82"/><rect class="cls-12" x="153.75" y="163.5" width="12.87" height="0.82"/><rect class="cls-12" x="162.3" y="166.56" width="8.94" height="0.82"/><rect class="cls-12" x="169.98" y="162.93" width="9.61" height="0.82"/><rect class="cls-12" x="176.33" y="165.34" width="9.71" height="0.82"/><rect class="cls-12" x="189.87" y="167" width="1.92" height="0.81"/><rect class="cls-12" x="156.92" y="167" width="2.11" height="0.81"/><rect class="cls-12" x="188.91" y="163.5" width="1.92" height="0.82"/><rect class="cls-12" x="193.24" y="163.5" width="7.98" height="0.82"/><rect class="cls-12" x="195.93" y="167" width="12.88" height="0.81"/><rect class="cls-12" x="230.43" y="162.93" width="2.21" height="0.82"/><rect class="cls-12" x="217.55" y="163.5" width="10.67" height="0.82"/><rect class="cls-12" x="203.91" y="164.32" width="8.46" height="0.81"/><rect class="cls-12" x="211.98" y="166.56" width="10.09" height="0.82"/><rect class="cls-12" x="223.99" y="165.34" width="11.72" height="0.82"/><rect class="cls-12" x="238.21" y="162.93" width="11.24" height="0.82"/><rect class="cls-12" x="239.46" y="166.56" width="14.99" height="0.82"/><rect class="cls-12" x="257.14" y="167" width="1.92" height="0.81"/><rect class="cls-12" x="256.76" y="163.5" width="11.92" height="0.82"/><rect class="cls-12" x="263.96" y="166.56" width="10.28" height="0.82"/><rect class="cls-12" x="271.56" y="163.5" width="10.47" height="0.82"/><rect class="cls-12" x="278.47" y="165.85" width="15.66" height="0.82"/><rect class="cls-12" x="290.58" y="163.5" width="13.16" height="0.82"/><rect class="cls-12" x="307.01" y="163.5" width="3.36" height="0.82"/><rect class="cls-12" x="297.16" y="166.56" width="12.54" height="0.82"/></g><polygon class="cls-17" points="280.4 193.13 276.73 169.25 270.49 169.25 274.16 193.13 280.4 193.13"/><polygon class="cls-17" points="35.08 193.13 38.75 169.25 32.51 169.25 28.84 193.13 35.08 193.13"/><path class="cls-4" d="M114.54,177.78H224.28V115.11a2.89,2.89,0,0,0-2.83-3H114.54a2.9,2.9,0,0,0-2.85,3v62.67Z" transform="translate(-13.37 -22.34)"/><path class="cls-18" d="M234.82,177.28H101.16c0,.24-.08.47-.08.71v2.14c0,3.53,2.76,3.74,6.18,3.74H228.73c3.39,0,6.17-.21,6.17-3.74V178A5.71,5.71,0,0,0,234.82,177.28Z" transform="translate(-13.37 -22.34)"/><path id="_Görbe_3" data-name="&lt;Görbe&gt;" class="cls-11" d="M172.52,146.91a5.45,5.45,0,1,1-5.45-5.6A5.52,5.52,0,0,1,172.52,146.91Z" transform="translate(-13.37 -22.34)"/><rect class="cls-17" x="11.11" y="96.8" width="55.2" height="64.69"/><rect class="cls-11" x="13.82" y="99.59" width="49.78" height="59.11"/><polygon class="cls-19" points="15.21 100.98 63.6 100.98 63.6 99.59 13.82 99.59 13.82 158.71 15.21 158.71 15.21 100.98"/><rect class="cls-20" x="20.85" y="106.29" width="35.72" height="45.46"/><path class="cls-11" d="M57.05,145.07v-5.88a.27.27,0,0,0-.27-.27H55.35a.27.27,0,0,0-.27.27v2.49H53.14v-2.49a.27.27,0,0,0-.27-.27H51.14a.27.27,0,0,0-.27.27v2.49H48.94v-2.49a.28.28,0,0,0-.27-.27H47.23a.28.28,0,0,0-.27.27v5.88a.67.67,0,0,0,.67.66h8.76A.67.67,0,0,0,57.05,145.07Z" transform="translate(-13.37 -22.34)"/><path class="cls-11" d="M57.63,157.89a.49.49,0,0,0-.4-.18h-.51a11,11,0,0,1-2-6.31v-3.78h.87a.42.42,0,0,0,.3-.14.54.54,0,0,0,.12-.34v-.07a.51.51,0,0,0-.13-.35.38.38,0,0,0-.29-.14h-7.3a.41.41,0,0,0-.3.14.54.54,0,0,0-.12.34v.08a.52.52,0,0,0,.12.34.41.41,0,0,0,.3.14h.77v3.78a11,11,0,0,1-2,6.31h-.14a.54.54,0,0,0-.4.18.63.63,0,0,0-.16.43.62.62,0,0,0,.16.41.51.51,0,0,0,.4.19h.12v2H57v-2h.26a.55.55,0,0,0,.41-.19.61.61,0,0,0,.15-.41A.62.62,0,0,0,57.63,157.89Z" transform="translate(-13.37 -22.34)"/><path id="leaf" class="cls-21" d="M230.83,149c4.77,9.93,3.87,16.28,3.87,16.28s-1.26-15.46-11.77-18.69c-10.78-3.23-16.31-2.52-21.79-17.26h.1a1.57,1.57,0,0,1-.09-.23s16.32-2.15,25.48,12.36c.29.45.57.89.84,1.33A59.17,59.17,0,0,1,230.83,149Z" transform="translate(-13.37 -22.34)"/><path id="leaf-2" data-name="leaf" class="cls-21" d="M233.24,140.2c2.46,15-1.18,23-1.18,23s4.31-21-8.35-29.28c-13-8.44-20.59-9.63-22.14-31.25l.13,0c0-.12,0-.24,0-.35s22.43,3.46,28.93,26.21c.21.7.4,1.39.59,2.08A81.57,81.57,0,0,1,233.24,140.2Z" transform="translate(-13.37 -22.34)"/><path id="leaf-3" data-name="leaf" class="cls-21" d="M236.68,149c-4.77,9.93-3.87,16.28-3.87,16.28s1.26-15.46,11.78-18.69c10.77-3.23,16.3-2.52,21.78-17.26h-.1a1.6,1.6,0,0,0,.1-.23s-16.33-2.15-25.49,12.36c-.29.45-.56.89-.83,1.33A59.37,59.37,0,0,0,236.68,149Z" transform="translate(-13.37 -22.34)"/><path id="leaf-4" data-name="leaf" class="cls-21" d="M234.27,140.2c-2.46,15,1.18,23,1.18,23s-4.31-21,8.35-29.28c13-8.44,20.6-9.63,22.14-31.25l-.13,0c0-.12,0-.24,0-.35s-22.42,3.46-28.93,26.21c-.2.7-.4,1.39-.59,2.08A83.68,83.68,0,0,0,234.27,140.2Z" transform="translate(-13.37 -22.34)"/><path class="cls-22" d="M248.46,165.53V154.59H219.38v19h.13A11.58,11.58,0,0,0,231,184.06h6a11.57,11.57,0,0,0,11.48-10.42h0v-.1c0-.33,0-.67,0-1v-6C248.51,166.21,248.49,165.87,248.46,165.53Z" transform="translate(-13.37 -22.34)"/><rect class="cls-23" x="241.24" y="98.74" width="45.45" height="62.75" rx="3.93" ry="3.93"/><rect class="cls-24" x="241.24" y="98.74" width="45.45" height="62.75" rx="3.93" ry="3.93"/><polygon class="cls-11" points="276.68 159.28 243.76 159.27 243.78 103.01 284.39 103.02 284.37 152 276.68 159.28"/><path class="cls-8" d="M292,120.08h-7.1a8.32,8.32,0,0,0,.09-1.12,7.73,7.73,0,1,0-15.45,0,8.29,8.29,0,0,0,.08,1.11h-7.09a1.47,1.47,0,0,0-1.47,1.47v4a1.46,1.46,0,0,0,1.47,1.47h29.46a1.47,1.47,0,0,0,1.48-1.47v-4A1.47,1.47,0,0,0,292,120.08Zm-14.74.92a2.86,2.86,0,1,1,2.86-2.86A2.86,2.86,0,0,1,277.21,121Z" transform="translate(-13.37 -22.34)"/><polygon class="cls-25" points="284.37 152 276.79 152 276.78 159.28 284.37 152"/><rect class="cls-25" x="248.45" y="114.5" width="30.74" height="0.28"/><rect class="cls-25" x="248.45" y="116.17" width="30.74" height="0.28"/><rect class="cls-25" x="248.45" y="117.83" width="30.74" height="0.28"/><rect class="cls-25" x="248.45" y="119.49" width="30.74" height="0.28"/><rect class="cls-25" x="248.45" y="121.16" width="30.74" height="0.28"/><rect class="cls-25" x="248.45" y="122.82" width="30.74" height="0.28"/><rect class="cls-25" x="248.45" y="124.48" width="30.74" height="0.28"/><rect class="cls-25" x="248.45" y="126.15" width="30.74" height="0.28"/><rect class="cls-25" x="248.45" y="127.81" width="30.74" height="0.28"/><rect class="cls-25" x="248.45" y="129.48" width="30.74" height="0.28"/><rect class="cls-12" x="249.95" y="113.85" width="2.41" height="16.56"/><rect class="cls-26" x="267.05" y="115.35" width="2.41" height="15.06"/><rect class="cls-21" x="254.16" y="120.33" width="2.41" height="10.08"/><rect class="cls-20" x="271.22" y="120.33" width="2.41" height="10.08"/><rect class="cls-20" x="262.78" y="113.85" width="2.41" height="16.57"/><rect class="cls-3" x="275.25" y="113.85" width="2.41" height="16.57"/><rect class="cls-27" x="258.51" y="115.35" width="2.41" height="15.06"/><rect class="cls-25" x="248.45" y="133.55" width="30.74" height="0.28"/><rect class="cls-25" x="248.45" y="135.22" width="30.74" height="0.28"/><rect class="cls-25" x="248.45" y="136.88" width="30.74" height="0.28"/><rect class="cls-25" x="248.45" y="138.54" width="30.74" height="0.28"/><rect class="cls-25" x="248.45" y="140.21" width="30.74" height="0.28"/><rect class="cls-25" x="248.45" y="141.87" width="30.74" height="0.28"/><rect class="cls-25" x="248.45" y="143.53" width="30.74" height="0.28"/><rect class="cls-25" x="248.45" y="145.2" width="30.74" height="0.28"/><rect class="cls-25" x="248.45" y="146.86" width="30.74" height="0.28"/><rect class="cls-25" x="248.45" y="148.52" width="30.74" height="0.28"/><rect class="cls-26" x="249.95" y="132.9" width="2.41" height="16.56"/><rect class="cls-12" x="267.05" y="134.4" width="2.41" height="15.06"/><rect class="cls-3" x="254.16" y="139.38" width="2.41" height="10.08"/><rect class="cls-21" x="271.22" y="139.38" width="2.41" height="10.08"/><rect class="cls-3" x="262.78" y="132.9" width="2.41" height="16.57"/><rect class="cls-27" x="275.25" y="132.9" width="2.41" height="16.57"/><rect class="cls-20" x="258.51" y="134.4" width="2.41" height="15.06"/><path class="cls-2" d="M145.31,135.94a.66.66,0,0,1-.89.24l-1.86-1.2h0l-3.44-2.2-1.45-.9c-.89-.43-2.73-.77-2.75,1.16v1.7l-.06,30.85h-1.39l.05-32.76a2.42,2.42,0,0,1,0-.76,2.71,2.71,0,0,1,3.18-2.15,2.65,2.65,0,0,1,.8.24l.13.07.4.25,5.26,3.35,1.88,1.2A.63.63,0,0,1,145.31,135.94Z" transform="translate(-13.37 -22.34)"/><g id="_Csoport_5" data-name="&lt;Csoport&gt;"><g id="_Csoport_6" data-name="&lt;Csoport&gt;"><path id="_Görbe_4" data-name="&lt;Görbe&gt;" class="cls-11" d="M125.26,183.88a1,1,0,0,1-1-1l-3.66-43.21a.49.49,0,0,1,.1-.34.35.35,0,0,1,.28-.14H147a.35.35,0,0,1,.28.14.49.49,0,0,1,.1.34l-3.66,43.21a1,1,0,0,1-1,1Z" transform="translate(-13.37 -22.34)"/></g></g><g id="_Csoport_7" data-name="&lt;Csoport&gt;"><g id="_Csoport_8" data-name="&lt;Csoport&gt;"><path id="_Görbe_5" data-name="&lt;Görbe&gt;" class="cls-12" d="M123.14,148l2.8,33.06a.85.85,0,0,0,.79.83h14.52a.85.85,0,0,0,.79-.83l2.8-33.06Z" transform="translate(-13.37 -22.34)"/></g></g><path class="cls-15" d="M129.24,181.06,126.44,148h-3.3l2.8,33.06a.85.85,0,0,0,.79.83H130A.85.85,0,0,1,129.24,181.06Z" transform="translate(-13.37 -22.34)"/><path class="cls-26" d="M116.48,150.78v-6.63a1.68,1.68,0,0,0-1.68-1.68h-53a1.68,1.68,0,0,0-1.68,1.68v6.63h56.34Z" transform="translate(-13.37 -22.34)"/><rect class="cls-11" x="46.81" y="128.44" width="56.3" height="33.06"/><path class="cls-28" d="M112.9,152.75H63.09v29.42h50.09V152.75Zm0,14.91v6.88h-8v-6.88Zm0-7.27v6.87h-8v-6.87Zm-8.3-7.28V155h0v5h-8v-6.88Zm0,7.28v6.87h-8v-6.87Zm-8,7.27h8v6.88h-8Zm-.28-14.55V155h0v5h-8v-6.88Zm0,7.28v6.87h-8v-6.87Zm-8,7.27h8v6.88h-8ZM88,153.11V155h0v5H80v-6.88Zm0,7.28v6.87H80v-6.87Zm-8,7.27h8v6.88H80Zm-.28-14.55V155h0v5h-8v-6.88Zm0,7.28v6.87h-8v-6.87Zm-8,7.27h8v6.88h-8Zm-.28-14.55V155h0v5h-8v-6.88Zm-8,21.43v-6.88h8v6.88Zm0-7.28v-6.87h8v6.87Zm0,14.56V180h0v-5h8v6.88Zm8.3,0V180h0v-5h8v6.88Zm8.3,0V180h0v-5h8v6.88Zm8.3,0V180h0v-5h8v6.88Zm8.3,0V180h0v-5h8v6.88Zm8.3,0V180h0v-5h8v6.88Zm8-26.87v5h-8v-6.88h8V155Z" transform="translate(-13.37 -22.34)"/><path class="cls-29" d="M75.63,170.54c0-.21,0-.47,0-.47h0s-.15.17-.2.22l-.28.28-.23-.27.72-.66H76v2.71h-.38Z" transform="translate(-13.37 -22.34)"/><path class="cls-3" d="M75.7,174.08A3.06,3.06,0,1,1,78.76,171,3.07,3.07,0,0,1,75.7,174.08Zm0-5.67A2.61,2.61,0,1,0,78.31,171,2.61,2.61,0,0,0,75.7,168.41Z" transform="translate(-13.37 -22.34)"/><g class="cls-30"><polygon class="cls-31" points="214.69 35.26 214.69 47.42 226.85 47.42 239.01 47.42 239.01 35.26 214.69 35.26"/><polygon class="cls-31" points="228.59 50.21 228.59 62.37 240.75 62.37 252.91 62.37 252.91 50.21 228.59 50.21"/><polygon class="cls-31" points="200.78 50.21 200.78 62.37 212.94 62.37 225.1 62.37 225.1 50.21 200.78 50.21"/><polygon class="cls-31" points="200.78 20.27 200.78 32.43 212.94 32.43 225.1 32.43 225.1 20.27 200.78 20.27"/><path class="cls-31" d="M254.33,54.77H242.17V42.61h2.08a135.66,135.66,0,0,1,18.68,12.16Z" transform="translate(-13.37 -22.34)"/><path class="cls-31" d="M267.93,69.76H255.77V57.6h10.64a159.14,159.14,0,0,1,13,12.16Z" transform="translate(-13.37 -22.34)"/></g><path class="cls-32" d="M52.94,99.41H65.1V87.25H42.23c-.5.69-1,1.39-1.45,2.09V99.41Z" transform="translate(-13.37 -22.34)"/><path class="cls-32" d="M39,114.35H51.2V102.19H32.84q-3.24,5.86-6,12v.12Z" transform="translate(-13.37 -22.34)"/><polygon class="cls-32" points="65.63 92.01 65.63 79.85 41.31 79.85 41.31 92.01 53.47 92.01 65.63 92.01"/><path class="cls-33" d="M99.11,60.51c-.18.09-.37.2-.58.33,0,0-5,7.59-4.94,7.57l-.06,0c-2.74-1.91-4.44-8.68-4.44-8.68l-2-8.45A17.82,17.82,0,0,0,86.49,49a5.8,5.8,0,0,0-1.75-2.79,1.3,1.3,0,0,0-1.65.13c-.46.49-.57,1.44-.22,3.55.28,1.67,1.66,13,1.66,13h0c-1.41-3.1-5.8-12.14-6.56-13.6C77.31,48,77,47.18,75.73,47a1.09,1.09,0,0,0-.56.07l-.27.11a1.05,1.05,0,0,0-.37.25c-.79.88-.27,2.14.06,3.17s3.83,11.22,4.73,13.87c-2.48-3-7.58-11.05-7.58-11.05-.6-.85-1.27-2-2.47-1.46-1.44.53-.8,2.13-.48,3.25l6,12.31s-2.48.89-7.69-7.55c-.41-.27-.76-.39-1-.24C62.19,62,77.21,79.41,81.27,83.05c.3.27,1.54,4.88,1.77,5.38l12.08,0-.4-1.51a16.75,16.75,0,0,1-.6-4.93,9,9,0,0,1,.69-3.39c.22-.49.45-1,.67-1.43a46.27,46.27,0,0,0,2.2-5.47c1.13-3.46,2.84-8.66,3.17-9.62A1.27,1.27,0,0,0,99.11,60.51Z" transform="translate(-13.37 -22.34)"/><g id="envelope"><path class="cls-34" d="M228.46,182.75a1.1,1.1,0,0,1-1.16,1H183.05a1.09,1.09,0,0,1-1.16-1v-25a1.09,1.09,0,0,1,1.16-1h44.25a1.09,1.09,0,0,1,1.16,1Z" transform="translate(-13.37 -22.34)"/><path class="cls-35" d="M205.11,166.38l-23.22,16v.42a1.09,1.09,0,0,0,1.16,1H227.3a1.1,1.1,0,0,0,1.16-1v-.41Z" transform="translate(-13.37 -22.34)"/><path class="cls-11" d="M228.45,157.7a1.09,1.09,0,0,0-1.16-1H183a1.09,1.09,0,0,0-1.16,1v.15l21.71,15.22a3.1,3.1,0,0,0,3.29,0l21.57-15.16Z" transform="translate(-13.37 -22.34)"/></g></svg>